<?xml version="1.0" encoding="UTF-8"?>
<svg id="AVATAR" xmlns="http://www.w3.org/2000/svg" viewBox="0 0 1000 1000">
  <defs>
    <style>
      .cls-1 {
        fill: #00031e;
      }

      .cls-2 {
        fill: #fff;
      }
    </style>
  </defs>
  <g>
    <path class="cls-1" d="m500,999.5c-67.43,0-132.85-13.21-194.43-39.25-59.48-25.16-112.9-61.17-158.77-107.05-45.87-45.87-81.89-99.29-107.05-158.77C13.71,632.85.5,567.43.5,500s13.21-132.85,39.25-194.43c25.16-59.48,61.17-112.9,107.05-158.77,45.87-45.87,99.29-81.89,158.77-107.05C367.15,13.71,432.57.5,500,.5s132.85,13.21,194.43,39.25c59.48,25.16,112.9,61.17,158.77,107.05,45.87,45.87,81.89,99.29,107.05,158.77,26.05,61.58,39.25,127,39.25,194.43s-13.21,132.85-39.25,194.43c-25.16,59.48-61.17,112.9-107.05,158.77-45.87,45.87-99.29,81.89-158.77,107.05-61.58,26.05-127,39.25-194.43,39.25Z"/>
    <path d="m500,1c67.37,0,132.71,13.19,194.23,39.21,59.42,25.13,112.79,61.11,158.61,106.94,45.83,45.83,81.81,99.19,106.94,158.61,26.02,61.52,39.21,126.87,39.21,194.23s-13.19,132.71-39.21,194.23c-25.13,59.42-61.11,112.79-106.94,158.61-45.83,45.83-99.19,81.81-158.61,106.94-61.52,26.02-126.87,39.21-194.23,39.21s-132.71-13.19-194.23-39.21c-59.42-25.13-112.79-61.11-158.61-106.94-45.83-45.83-81.81-99.19-106.94-158.61C14.19,632.71,1,567.36,1,500s13.19-132.71,39.21-194.23c25.13-59.42,61.11-112.79,106.94-158.61,45.83-45.83,99.19-81.81,158.61-106.94C367.29,14.19,432.64,1,500,1m0-1h0C223.86,0,0,223.86,0,500h0c0,276.14,223.86,500,500,500h0c276.14,0,500-223.86,500-500h0C1000,223.86,776.14,0,500,0h0Z"/>
  </g>
  <g>
    <g>
      <path class="cls-2" d="m302.22,563.4c-15.85,0-29.15-11.38-31.63-27.05-2.77-17.46,9.19-33.92,26.66-36.69l395.48-62.65c1.67-.27,3.38-.4,5.06-.4,15.85,0,29.15,11.38,31.63,27.05,2.77,17.46-9.19,33.92-26.66,36.69l-395.48,62.65c-1.67.27-3.38.4-5.06.4Z"/>
      <path d="m697.78,436.1v1h0c7.43,0,14.66,2.66,20.37,7.49,5.76,4.88,9.59,11.68,10.77,19.15,1.32,8.33-.68,16.67-5.64,23.49-4.96,6.82-12.27,11.31-20.6,12.62l-395.48,62.65c-1.65.26-3.32.39-4.98.39-7.43,0-14.66-2.66-20.37-7.49-5.76-4.88-9.59-11.68-10.77-19.15-1.32-8.33.68-16.67,5.64-23.49,4.96-6.82,12.27-11.31,20.6-12.62l395.48-62.65c1.65-.26,3.32-.39,4.98-.39v-1m0,0c-1.69,0-3.41.13-5.14.41l-395.48,62.65c-17.77,2.81-29.89,19.5-27.07,37.26h0c2.54,16.04,16.39,27.48,32.13,27.48,1.69,0,3.41-.13,5.14-.41l395.48-62.65c17.77-2.81,29.89-19.5,27.07-37.26h0c-2.54-16.04-16.39-27.48-32.13-27.48h0Z"/>
    </g>
    <g>
      <path class="cls-2" d="m302.22,707.38c-15.85,0-29.15-11.38-31.63-27.06-2.77-17.46,9.19-33.92,26.66-36.69l395.48-62.65c1.67-.27,3.38-.4,5.06-.4,15.85,0,29.15,11.38,31.63,27.05,2.77,17.46-9.19,33.92-26.66,36.69l-395.48,62.65c-1.67.27-3.38.4-5.06.4Z"/>
      <path d="m697.78,580.09v1h0c7.43,0,14.66,2.66,20.37,7.49,5.76,4.88,9.59,11.68,10.77,19.15,1.32,8.33-.68,16.67-5.64,23.49s-12.27,11.31-20.6,12.62l-395.48,62.65c-1.65.26-3.32.39-4.98.39-7.43,0-14.66-2.66-20.37-7.49-5.76-4.88-9.59-11.68-10.77-19.15-1.32-8.33.68-16.67,5.64-23.49,4.96-6.82,12.27-11.31,20.6-12.62l395.48-62.65c1.65-.26,3.32-.39,4.98-.39v-1m0,0c-1.69,0-3.41.13-5.14.41l-395.48,62.65c-17.77,2.81-29.89,19.5-27.07,37.26h0c2.54,16.04,16.39,27.48,32.13,27.48,1.69,0,3.41-.13,5.14-.41l395.48-62.65c17.77-2.81,29.89-19.5,27.07-37.26h0c-2.54-16.04-16.39-27.48-32.13-27.48h0Z"/>
    </g>
    <g>
      <path class="cls-2" d="m302.22,419.41c-15.85,0-29.15-11.38-31.63-27.05-2.77-17.46,9.19-33.92,26.66-36.69l395.48-62.65c1.67-.27,3.38-.4,5.06-.4,15.85,0,29.15,11.38,31.63,27.05,2.77,17.46-9.19,33.92-26.66,36.69l-395.48,62.65c-1.67.27-3.38.4-5.06.4Z"/>
      <path d="m697.78,292.12v1h0c7.43,0,14.66,2.66,20.37,7.49,5.76,4.88,9.59,11.68,10.77,19.15,1.32,8.33-.68,16.67-5.64,23.49-4.96,6.82-12.27,11.31-20.6,12.62l-395.48,62.65c-1.65.26-3.32.39-4.98.39-7.43,0-14.66-2.66-20.37-7.49-5.76-4.88-9.59-11.68-10.77-19.15-1.32-8.33.68-16.67,5.64-23.49,4.96-6.82,12.27-11.31,20.6-12.62l395.48-62.65c1.65-.26,3.32-.39,4.98-.39v-1m0,0c-1.69,0-3.41.13-5.14.41l-395.48,62.65c-17.77,2.81-29.89,19.5-27.07,37.26h0c2.54,16.04,16.39,27.48,32.13,27.48,1.69,0,3.41-.13,5.14-.41l395.48-62.65c17.77-2.81,29.89-19.5,27.07-37.26h0c-2.54-16.04-16.39-27.48-32.13-27.48h0Z"/>
    </g>
  </g>
</svg>