<?xml version="1.0" encoding="UTF-8"?>
<svg id="LOGO_TEXT" data-name="LOGO TEXT" xmlns="http://www.w3.org/2000/svg" viewBox="0 0 1700 500">
  <defs>
    <style>
      .cls-1 {
        fill: #00031e;
        stroke: #000;
        stroke-miterlimit: 10;
      }
    </style>
  </defs>
  <path class="cls-1" d="m41.27,169.21h232.19v119.31l-212.4,93.09h212.4v63.67H41.27v-119.31l212.4-93.09H41.27v-63.67Z"/>
  <path class="cls-1" d="m485.32,285.85l124.12,159.43h-90.95l-82.39-105.4-34.78,37.99v67.41h-72.22V49.37h72.22v232.19l98.98-112.35h90.95l-105.93,116.63Z"/>
  <path class="cls-1" d="m884.43,445.28h-249.31V70.77h76.5v306.56h172.81v67.95Z"/>
  <path class="cls-1" d="m1615.39,49.37c23.54,0,43.33,19.26,43.33,43.33s-19.79,43.33-43.33,43.33-43.87-19.79-43.87-43.33,19.79-43.33,43.87-43.33Zm-619.16,395.9h-72.22V169.21h72.22v276.06Z"/>
  <path class="cls-1" d="m1295.84,195.96c18.72,21.4,27.82,48.69,27.82,81.86v167.46h-72.23v-154.62c0-35.84-25.68-60.99-59.92-60.99-38.52,0-65.27,25.15-65.27,60.99v154.62h-72.22V169.21h72.22v70.62c14.45-47.08,50.29-75.97,95.23-75.97,30.5,0,55.64,10.7,74.37,32.1Z"/>
  <path class="cls-1" d="m1625.39,213.62c27.82,33.71,37.99,73.29,30.5,119.31h-212.93c10.17,33.71,38.52,55.64,75.44,55.64,31.57,0,54.04-12.84,68.48-38.52l59.39,26.75c-25.15,44.94-72.23,73.83-130.01,73.83-42.27,0-77.04-13.91-105.4-41.2-28.35-27.29-42.26-61.53-42.26-102.19s13.91-74.9,41.73-102.19c27.82-27.29,62.06-41.2,103.26-41.2,46.55,0,83.46,16.58,111.82,49.76Zm-181.37,64.2h139.64c-10.17-31.57-36.38-51.9-70.09-51.9s-59.38,20.33-69.55,51.9Z"/>
</svg>